<?xml version="1.0" encoding="iso-8859-1"?>
<!-- Uploaded to: SVG Repo, www.svgrepo.com, Generator: SVG Repo Mixer Tools -->
<svg version="1.1" id="Layer_1" xmlns="http://www.w3.org/2000/svg" xmlns:xlink="http://www.w3.org/1999/xlink" 
	 viewBox="0 0 512 512" xml:space="preserve">
<path style="fill:#3FA9F5;" d="M426.501,242.447l3.966,39.572H121.185l15.861-126.885h155.196
	c-14.671,50.595-3.093,95.164,82.713,95.164c21.65,0,38.541-2.855,51.546-7.93V242.447z"/>
<path style="fill:#9DA1A4;" d="M303.582,123.413l0.397,0.159c-4.758,10.547-8.803,21.174-11.737,31.563H137.045l-15.861,126.885
	H81.533l15.861-158.606L303.582,123.413L303.582,123.413z"/>
<polygon style="fill:#3F8FF5;" points="137.045,155.134 121.185,282.019 240.139,282.019 240.139,155.134 "/>
<g>
	<path style="fill:#C3C7C9;" d="M470.117,424.764v63.442c0,8.724-7.137,15.861-15.861,15.861h-15.861
		c-8.724,0-15.861-7.137-15.861-15.861v-63.442H470.117z"/>
	<path style="fill:#C3C7C9;" d="M97.394,424.764v63.442c0,8.724-7.137,15.861-15.861,15.861H65.673
		c-8.724,0-15.861-7.137-15.861-15.861v-63.442H97.394z"/>
	<path style="fill:#C3C7C9;" d="M406.676,313.74c21.888,0,39.651,17.764,39.651,39.652c0,21.888-17.764,39.651-39.651,39.651
		s-39.651-17.764-39.651-39.651C367.024,331.504,384.788,313.74,406.676,313.74z"/>
	<path style="fill:#C3C7C9;" d="M105.324,393.042c-21.888,0-39.652-17.764-39.652-39.652c0-21.888,17.764-39.651,39.652-39.651
		s39.651,17.764,39.651,39.651C144.976,375.279,127.212,393.042,105.324,393.042z"/>
	<rect x="200.484" y="345.466" style="fill:#C3C7C9;" width="111.026" height="47.582"/>
</g>
<path style="fill:#484D50;" d="M311.512,393.042V345.46H200.488v47.582H311.512z M478.047,282.019l15.861,142.745h-23.791h-47.582
	H97.394H49.812H18.091l15.861-142.745h47.582h39.652h309.281H478.047z M446.326,353.391c0-21.888-17.764-39.652-39.651-39.652
	s-39.651,17.764-39.651,39.651s17.764,39.651,39.651,39.651C428.563,393.042,446.326,375.279,446.326,353.391z M144.976,353.391
	c0-21.888-17.764-39.652-39.652-39.652s-39.652,17.764-39.652,39.651s17.764,39.651,39.652,39.651S144.976,375.279,144.976,353.391z
	"/>
<g>
	<circle style="fill:#999D9F;" cx="105.324" cy="353.389" r="15.861"/>
	<circle style="fill:#999D9F;" cx="406.68" cy="353.389" r="15.861"/>
	<rect x="200.484" y="345.466" style="fill:#999D9F;" width="111.026" height="23.791"/>
</g>
<g>
	<rect x="271.864" y="361.322" style="fill:#FFFFFF;" width="15.861" height="15.867"/>
	<rect x="224.284" y="361.322" style="fill:#FFFFFF;" width="15.861" height="15.867"/>
	<path style="fill:#FFFFFF;" d="M105.324,377.186c-13.12,0-23.794-10.674-23.794-23.794s10.674-23.794,23.794-23.794v15.867
		c-4.371,0-7.927,3.556-7.927,7.927c0,4.371,3.556,7.927,7.927,7.927s7.927-3.556,7.927-7.927h15.867
		C129.118,366.512,118.444,377.186,105.324,377.186z"/>
	<path style="fill:#FFFFFF;" d="M406.675,377.186c-13.12,0-23.794-10.674-23.794-23.794s10.674-23.794,23.794-23.794v15.867
		c-4.371,0-7.927,3.556-7.927,7.927c0,4.371,3.556,7.927,7.927,7.927c4.371,0,7.927-3.556,7.927-7.927h15.867
		C430.469,366.512,419.796,377.186,406.675,377.186z"/>
	<rect x="152.904" y="178.926" style="fill:#FFFFFF;" width="15.861" height="15.867"/>
	<rect x="152.904" y="202.716" style="fill:#FFFFFF;" width="15.861" height="15.867"/>
</g>
<path style="fill:#F25B22;" d="M375.509,91.692c0,0,105.79,126.885,0,126.885C269.799,218.577,375.509,91.692,375.509,91.692z"/>
<path style="fill:#FFD311;" d="M374.954,12.389c0,0,198.258,237.908,0,237.908S374.954,12.389,374.954,12.389z M375.509,218.577
	c105.79,0,0-126.885,0-126.885S269.799,218.577,375.509,218.577z"/>
<path d="M502.772,432.697l-17.623-158.611h-47.505l-2.68-26.756c17.8-8.434,29.159-21.709,33.759-39.566
	c18.536-71.962-83.329-195.242-87.674-200.455L374.954,0l-6.094,7.308c-1.827,2.192-43.87,52.901-69.885,108.171H90.214
	l-15.86,158.606H26.852L9.228,432.697h32.651v55.509c0,13.12,10.674,23.794,23.794,23.794h15.861
	c13.12,0,23.794-10.674,23.794-23.794v-55.509h309.274v55.509c0,13.12,10.674,23.794,23.794,23.794h15.861
	c13.12,0,23.794-10.674,23.794-23.794v-55.509H502.772z M421.698,274.086H130.172l13.878-111.018h137.968
	c-6.101,27.338-3.106,49.294,8.962,65.358c14.857,19.778,43.111,29.806,83.974,29.806c17.061,0,32.013-1.769,44.63-5.25
	L421.698,274.086z M374.957,25.089c9,11.506,26.542,34.894,42.88,62.247c29.949,50.14,42.231,90.415,35.521,116.47
	c-3.772,14.644-13.5,24.839-29.74,31.17c-12.561,4.902-28.933,7.388-48.663,7.388c-35.604,0-59.589-7.896-71.288-23.469
	c-10.366-13.8-11.646-34.508-3.805-61.551l0.016-0.053c2.673-9.465,6.486-19.712,11.333-30.456
	C330.56,83.939,361.841,41.871,374.957,25.089z M104.574,131.347h187.481c-2.174,5.433-4.079,10.727-5.704,15.854H130.043
	l-15.861,126.885H90.3L104.574,131.347z M41.053,289.953h429.894l14.097,126.877H26.955L41.053,289.953z M89.46,488.206
	c0,4.371-3.556,7.927-7.927,7.927H65.673c-4.371,0-7.927-3.556-7.927-7.927v-55.509H89.46V488.206z M462.184,488.206
	c0,4.371-3.556,7.927-7.927,7.927h-15.861c-4.371,0-7.927-3.556-7.927-7.927v-55.509h31.715L462.184,488.206L462.184,488.206z"/>
<path d="M105.324,305.807c-26.239,0-47.585,21.346-47.585,47.585c0,26.239,21.346,47.585,47.585,47.585s47.585-21.346,47.585-47.585
	C152.909,327.153,131.563,305.807,105.324,305.807z M105.324,385.109c-17.49,0-31.718-14.228-31.718-31.718
	c0-17.49,14.228-31.718,31.718-31.718s31.718,14.228,31.718,31.718C137.042,370.88,122.814,385.109,105.324,385.109z"/>
<path d="M406.675,305.807c-26.239,0-47.585,21.346-47.585,47.585c0,26.239,21.346,47.585,47.585,47.585
	c26.239,0,47.585-21.346,47.585-47.585C454.26,327.153,432.913,305.807,406.675,305.807z M406.675,385.109
	c-17.49,0-31.718-14.228-31.718-31.718c0-17.49,14.228-31.718,31.718-31.718c17.49,0,31.718,14.228,31.718,31.718
	C438.393,370.88,424.164,385.109,406.675,385.109z"/>
<rect x="176.694" y="305.809" width="158.606" height="15.867"/>
<path d="M319.446,337.527H192.554v47.582h-15.857v15.867h158.605v-15.867h-15.857v-47.582H319.446z M208.421,353.394h95.157v31.715
	h-95.157V353.394z"/>
<rect x="248.074" y="361.322" width="15.861" height="15.867"/>
<rect x="176.694" y="178.926" width="15.861" height="15.867"/>
<path d="M375.509,226.51c26.82,0,44.097-7.852,51.349-23.339c8.023-17.136,2.573-42.249-16.202-74.641
	c-13.293-22.935-28.416-41.153-29.052-41.916l-6.095-7.311l-6.093,7.314c-0.637,0.765-15.752,18.986-29.035,41.925
	c-18.762,32.396-24.206,57.51-16.179,74.644C331.451,218.661,348.714,226.51,375.509,226.51z M354.008,136.666
	c7.588-13.128,15.989-24.844,21.506-32.131c5.489,7.242,13.834,18.871,21.414,31.95c15.564,26.853,21.09,48.146,15.56,59.957
	c-4.412,9.423-16.854,14.201-36.978,14.201c-20.098,0-32.526-4.773-36.939-14.187C333.048,184.674,338.53,163.441,354.008,136.666z"
	/>
<polygon points="374.954,178.928 390.815,178.928 390.815,163.061 374.954,163.061 374.954,178.922 359.093,178.922 
	359.093,194.789 374.954,194.789 "/>
</svg>